<?xml version="1.0" encoding="UTF-8" standalone="no"?>
<!DOCTYPE svg PUBLIC "-//W3C//DTD SVG 1.1//EN"
 "http://www.w3.org/Graphics/SVG/1.1/DTD/svg11.dtd">
<!-- Generated by graphviz version 2.40.1 (20161225.0304)
 -->
<!-- Title: state transitions Pages: 1 -->
<svg width="695pt" height="598pt"
 viewBox="0.00 0.00 695.45 598.00" xmlns="http://www.w3.org/2000/svg" xmlns:xlink="http://www.w3.org/1999/xlink">
<g id="graph0" class="graph" transform="scale(1 1) rotate(0) translate(4 594)">
<title>state transitions</title>
<polygon fill="#ffffff" stroke="transparent" points="-4,4 -4,-594 691.455,-594 691.455,4 -4,4"/>
<g id="clust1" class="cluster state regular">
<title>cluster_FSM_I2C</title>
<path fill="none" stroke="#000000" stroke-width="2" d="M20,-8C20,-8 628,-8 628,-8 634,-8 640,-14 640,-20 640,-20 640,-570 640,-570 640,-576 634,-582 628,-582 628,-582 20,-582 20,-582 14,-582 8,-576 8,-570 8,-570 8,-20 8,-20 8,-14 14,-8 20,-8"/>
<text text-anchor="start" x="298.6662" y="-563.2" font-family="Helvetica,sans-Serif" font-size="12.00" fill="#000000">FSM_I2C</text>
</g>
<!-- FSM_I2C -->
<!-- state_WAIT -->
<g id="node2" class="node state regular">
<title>state_WAIT</title>
<polygon fill="#ffffff" fill-opacity="0.003922" stroke="transparent" stroke-width="2" points="591,-544 507,-544 507,-508 591,-508 591,-544"/>
<text text-anchor="start" x="517.6614" y="-522.2" font-family="Helvetica,sans-Serif" font-size="12.00" fill="#000000">state_WAIT</text>
<path fill="none" stroke="#000000" stroke-width="2" d="M519.3333,-509C519.3333,-509 578.6667,-509 578.6667,-509 584.3333,-509 590,-514.6667 590,-520.3333 590,-520.3333 590,-531.6667 590,-531.6667 590,-537.3333 584.3333,-543 578.6667,-543 578.6667,-543 519.3333,-543 519.3333,-543 513.6667,-543 508,-537.3333 508,-531.6667 508,-531.6667 508,-520.3333 508,-520.3333 508,-514.6667 513.6667,-509 519.3333,-509"/>
</g>
<!-- state_START -->
<g id="node3" class="node state regular">
<title>state_START</title>
<polygon fill="#ffffff" fill-opacity="0.003922" stroke="transparent" stroke-width="2" points="331,-462 237,-462 237,-426 331,-426 331,-462"/>
<text text-anchor="start" x="247.994" y="-440.2" font-family="Helvetica,sans-Serif" font-size="12.00" fill="#000000">state_START</text>
<path fill="none" stroke="#000000" stroke-width="2" d="M249.3333,-427C249.3333,-427 318.6667,-427 318.6667,-427 324.3333,-427 330,-432.6667 330,-438.3333 330,-438.3333 330,-449.6667 330,-449.6667 330,-455.3333 324.3333,-461 318.6667,-461 318.6667,-461 249.3333,-461 249.3333,-461 243.6667,-461 238,-455.3333 238,-449.6667 238,-449.6667 238,-438.3333 238,-438.3333 238,-432.6667 243.6667,-427 249.3333,-427"/>
</g>
<!-- state_WAIT&#45;&gt;state_START -->
<g id="edge2" class="edge transition">
<title>state_WAIT&#45;&gt;state_START</title>
<path fill="none" stroke="#000000" d="M506.7169,-512.9162C461.7831,-499.0121 390.4877,-476.9509 340.7034,-461.546"/>
<polygon fill="#000000" stroke="#000000" points="341.6353,-458.1706 331.0475,-458.5581 339.566,-464.8578 341.6353,-458.1706"/>
<text text-anchor="start" x="434" y="-482" font-family="Helvetica,sans-Serif" font-size="10.00" fill="#000000">f_start &#160;&#160;</text>
</g>
<!-- state_BUSY -->
<g id="node8" class="node state regular">
<title>state_BUSY</title>
<polygon fill="#ffffff" fill-opacity="0.003922" stroke="transparent" stroke-width="2" points="597.5,-216 510.5,-216 510.5,-180 597.5,-180 597.5,-216"/>
<text text-anchor="start" x="521.8234" y="-194.2" font-family="Helvetica,sans-Serif" font-size="12.00" fill="#000000">state_BUSY</text>
<path fill="none" stroke="#000000" stroke-width="2" d="M522.8333,-181C522.8333,-181 585.1667,-181 585.1667,-181 590.8333,-181 596.5,-186.6667 596.5,-192.3333 596.5,-192.3333 596.5,-203.6667 596.5,-203.6667 596.5,-209.3333 590.8333,-215 585.1667,-215 585.1667,-215 522.8333,-215 522.8333,-215 517.1667,-215 511.5,-209.3333 511.5,-203.6667 511.5,-203.6667 511.5,-192.3333 511.5,-192.3333 511.5,-186.6667 517.1667,-181 522.8333,-181"/>
</g>
<!-- state_WAIT&#45;&gt;state_BUSY -->
<g id="edge1" class="edge transition">
<title>state_WAIT&#45;&gt;state_BUSY</title>
<path fill="none" stroke="#000000" d="M549,-507.6312C549,-500.5574 549,-492.4028 549,-485 549,-485 549,-485 549,-388.5 549,-381.4702 543.2174,-268.4556 546,-262 550.3558,-251.8949 559.1463,-254.8756 564,-245 567.1662,-238.5579 567.8355,-235.0383 565.9721,-226.096"/>
<polygon fill="#000000" stroke="#000000" points="569.3102,-225.0104 563.5477,-216.1198 562.5082,-226.6635 569.3102,-225.0104"/>
<text text-anchor="start" x="548" y="-359" font-family="Helvetica,sans-Serif" font-size="10.00" fill="#000000">f_busy &#160;&#160;</text>
</g>
<!-- state_ADDR -->
<g id="node4" class="node state regular">
<title>state_ADDR</title>
<polygon fill="#ffffff" fill-opacity="0.003922" stroke="transparent" stroke-width="2" points="328,-380 240,-380 240,-344 328,-344 328,-380"/>
<text text-anchor="start" x="250.6634" y="-358.2" font-family="Helvetica,sans-Serif" font-size="12.00" fill="#000000">state_ADDR</text>
<path fill="none" stroke="#000000" stroke-width="2" d="M252.3333,-345C252.3333,-345 315.6667,-345 315.6667,-345 321.3333,-345 327,-350.6667 327,-356.3333 327,-356.3333 327,-367.6667 327,-367.6667 327,-373.3333 321.3333,-379 315.6667,-379 315.6667,-379 252.3333,-379 252.3333,-379 246.6667,-379 241,-373.3333 241,-367.6667 241,-367.6667 241,-356.3333 241,-356.3333 241,-350.6667 246.6667,-345 252.3333,-345"/>
</g>
<!-- state_START&#45;&gt;state_ADDR -->
<g id="edge4" class="edge transition">
<title>state_START&#45;&gt;state_ADDR</title>
<path fill="none" stroke="#000000" d="M284,-425.8015C284,-415.3976 284,-402.1215 284,-390.3768"/>
<polygon fill="#000000" stroke="#000000" points="287.5001,-390.1476 284,-380.1476 280.5001,-390.1476 287.5001,-390.1476"/>
<text text-anchor="start" x="284" y="-400" font-family="Helvetica,sans-Serif" font-size="10.00" fill="#000000">f_negedge_sck &#160;&#160;</text>
</g>
<!-- state_STOP -->
<g id="node7" class="node state regular">
<title>state_STOP</title>
<polygon fill="#ffffff" fill-opacity="0.003922" stroke="transparent" stroke-width="2" points="358.5,-52 271.5,-52 271.5,-16 358.5,-16 358.5,-52"/>
<text text-anchor="start" x="282.8234" y="-30.2" font-family="Helvetica,sans-Serif" font-size="12.00" fill="#000000">state_STOP</text>
<path fill="none" stroke="#000000" stroke-width="2" d="M283.8333,-17C283.8333,-17 346.1667,-17 346.1667,-17 351.8333,-17 357.5,-22.6667 357.5,-28.3333 357.5,-28.3333 357.5,-39.6667 357.5,-39.6667 357.5,-45.3333 351.8333,-51 346.1667,-51 346.1667,-51 283.8333,-51 283.8333,-51 278.1667,-51 272.5,-45.3333 272.5,-39.6667 272.5,-39.6667 272.5,-28.3333 272.5,-28.3333 272.5,-22.6667 278.1667,-17 283.8333,-17"/>
</g>
<!-- state_START&#45;&gt;state_STOP -->
<g id="edge3" class="edge transition">
<title>state_START&#45;&gt;state_STOP</title>
<path fill="none" stroke="#000000" d="M236.5451,-438.4044C180.2684,-431.1092 94,-417.5527 94,-403 94,-403 94,-403 94,-335.5 94,-285.0267 118,-274.9733 118,-224.5 118,-224.5 118,-224.5 118,-75 118,-60.3348 202.758,-47.2683 261.0834,-40.0128"/>
<polygon fill="#000000" stroke="#000000" points="261.7765,-43.4543 271.2793,-38.7697 260.9292,-36.5058 261.7765,-43.4543"/>
<text text-anchor="start" x="117" y="-236" font-family="Helvetica,sans-Serif" font-size="10.00" fill="#000000">f_stop &#160;&#160;</text>
</g>
<!-- state_ACK -->
<g id="node5" class="node state regular">
<title>state_ACK</title>
<polygon fill="#ffffff" fill-opacity="0.003922" stroke="transparent" stroke-width="2" points="455.5,-298 376.5,-298 376.5,-262 455.5,-262 455.5,-298"/>
<text text-anchor="start" x="387.8248" y="-276.2" font-family="Helvetica,sans-Serif" font-size="12.00" fill="#000000">state_ACK</text>
<path fill="none" stroke="#000000" stroke-width="2" d="M388.8333,-263C388.8333,-263 443.1667,-263 443.1667,-263 448.8333,-263 454.5,-268.6667 454.5,-274.3333 454.5,-274.3333 454.5,-285.6667 454.5,-285.6667 454.5,-291.3333 448.8333,-297 443.1667,-297 443.1667,-297 388.8333,-297 388.8333,-297 383.1667,-297 377.5,-291.3333 377.5,-285.6667 377.5,-285.6667 377.5,-274.3333 377.5,-274.3333 377.5,-268.6667 383.1667,-263 388.8333,-263"/>
</g>
<!-- state_ADDR&#45;&gt;state_ACK -->
<g id="edge7" class="edge transition">
<title>state_ADDR&#45;&gt;state_ACK</title>
<path fill="none" stroke="#000000" d="M327.8217,-343.8184C338.3102,-338.855 349.2796,-333.136 359,-327 369.318,-320.4867 379.8389,-312.3238 388.987,-304.6367"/>
<polygon fill="#000000" stroke="#000000" points="391.336,-307.2328 396.6332,-298.0573 386.7702,-301.9267 391.336,-307.2328"/>
<text text-anchor="start" x="375" y="-318" font-family="Helvetica,sans-Serif" font-size="10.00" fill="#000000">f_2ack &#160;&#160;</text>
</g>
<!-- state_ADDR&#45;&gt;state_STOP -->
<g id="edge5" class="edge transition">
<title>state_ADDR&#45;&gt;state_STOP</title>
<path fill="none" stroke="#000000" d="M239.7281,-355.7937C206.6378,-350.142 165.3971,-340.5938 155,-327 151.7599,-322.7637 154.552,-320.3145 155,-315 157.0071,-291.1917 158.0667,-285.1443 164,-262 168.3805,-244.9128 177,-242.1397 177,-224.5 177,-224.5 177,-224.5 177,-75 177,-56.6455 222.425,-45.8562 261.1516,-39.9931"/>
<polygon fill="#000000" stroke="#000000" points="261.9318,-43.4172 271.3359,-38.5374 260.9413,-36.4877 261.9318,-43.4172"/>
<text text-anchor="start" x="177" y="-195" font-family="Helvetica,sans-Serif" font-size="10.00" fill="#000000">f_stop &#160;&#160;</text>
</g>
<!-- state_ERR -->
<g id="node9" class="node state regular">
<title>state_ERR</title>
<polygon fill="#ffffff" fill-opacity="0.003922" stroke="transparent" stroke-width="2" points="306,-134 226,-134 226,-98 306,-98 306,-134"/>
<text text-anchor="start" x="236.9948" y="-112.2" font-family="Helvetica,sans-Serif" font-size="12.00" fill="#000000">state_ERR</text>
<path fill="none" stroke="#000000" stroke-width="2" d="M238.3333,-99C238.3333,-99 293.6667,-99 293.6667,-99 299.3333,-99 305,-104.6667 305,-110.3333 305,-110.3333 305,-121.6667 305,-121.6667 305,-127.3333 299.3333,-133 293.6667,-133 293.6667,-133 238.3333,-133 238.3333,-133 232.6667,-133 227,-127.3333 227,-121.6667 227,-121.6667 227,-110.3333 227,-110.3333 227,-104.6667 232.6667,-99 238.3333,-99"/>
</g>
<!-- state_ADDR&#45;&gt;state_ERR -->
<g id="edge6" class="edge transition">
<title>state_ADDR&#45;&gt;state_ERR</title>
<path fill="none" stroke="#000000" d="M275.5666,-343.7619C264.3715,-317.8395 246,-268.5841 246,-224.5 246,-224.5 246,-224.5 246,-157 246,-152.4214 247.02,-147.8198 248.5993,-143.4391"/>
<polygon fill="#000000" stroke="#000000" points="251.8039,-144.8471 252.7711,-134.2965 245.4355,-141.9412 251.8039,-144.8471"/>
<text text-anchor="start" x="247" y="-236" font-family="Helvetica,sans-Serif" font-size="10.00" fill="#000000">f_start &#160;&#160;</text>
</g>
<!-- state_ACK&#45;&gt;state_START -->
<g id="edge9" class="edge transition">
<title>state_ACK&#45;&gt;state_START</title>
<path fill="none" stroke="#000000" d="M419.4944,-298.1903C420.5153,-307.0488 420.7271,-317.7567 418,-327 405.7203,-368.6206 398.1217,-380.964 365,-409 357.7103,-415.1704 349.1673,-420.4111 340.4137,-424.8091"/>
<polygon fill="#000000" stroke="#000000" points="338.8344,-421.6838 331.259,-429.0909 341.8001,-428.0246 338.8344,-421.6838"/>
<text text-anchor="start" x="412" y="-359" font-family="Helvetica,sans-Serif" font-size="10.00" fill="#000000">f_start_repeated &#160;&#160;</text>
</g>
<!-- state_ACK&#45;&gt;state_ADDR -->
<g id="edge10" class="edge transition">
<title>state_ACK&#45;&gt;state_ADDR</title>
<path fill="none" stroke="#000000" d="M376.3644,-286.3788C355.391,-291.3571 330.2315,-300.044 311.76,-315 305.2349,-320.2832 299.9014,-327.5386 295.7163,-334.7684"/>
<polygon fill="#000000" stroke="#000000" points="292.5467,-333.277 291.026,-343.7622 298.7534,-336.5139 292.5467,-333.277"/>
<text text-anchor="start" x="311" y="-318" font-family="Helvetica,sans-Serif" font-size="10.00" fill="#000000">f_2addr &#160;&#160;</text>
</g>
<!-- state_DATA -->
<g id="node6" class="node state regular">
<title>state_DATA</title>
<polygon fill="#ffffff" fill-opacity="0.003922" stroke="transparent" stroke-width="2" points="369,-216 283,-216 283,-180 369,-180 369,-216"/>
<text text-anchor="start" x="293.6594" y="-194.2" font-family="Helvetica,sans-Serif" font-size="12.00" fill="#000000">state_DATA</text>
<path fill="none" stroke="#000000" stroke-width="2" d="M295.3333,-181C295.3333,-181 356.6667,-181 356.6667,-181 362.3333,-181 368,-186.6667 368,-192.3333 368,-192.3333 368,-203.6667 368,-203.6667 368,-209.3333 362.3333,-215 356.6667,-215 356.6667,-215 295.3333,-215 295.3333,-215 289.6667,-215 284,-209.3333 284,-203.6667 284,-203.6667 284,-192.3333 284,-192.3333 284,-186.6667 289.6667,-181 295.3333,-181"/>
</g>
<!-- state_ACK&#45;&gt;state_DATA -->
<g id="edge11" class="edge transition">
<title>state_ACK&#45;&gt;state_DATA</title>
<path fill="none" stroke="#000000" d="M376.2413,-267.6578C364.2125,-262.3024 351.831,-254.924 342.869,-245 338.0282,-239.6396 334.5516,-232.7904 332.0639,-225.9891"/>
<polygon fill="#000000" stroke="#000000" points="335.3535,-224.7777 329.0831,-216.2377 328.6593,-226.8241 335.3535,-224.7777"/>
<text text-anchor="start" x="342" y="-236" font-family="Helvetica,sans-Serif" font-size="10.00" fill="#000000">f_2bytes &#160;&#160;</text>
</g>
<!-- state_ACK&#45;&gt;state_STOP -->
<g id="edge8" class="edge transition">
<title>state_ACK&#45;&gt;state_STOP</title>
<path fill="none" stroke="#000000" d="M455.6652,-267.4697C467.3161,-261.1679 477,-252.0153 477,-239 477,-239 477,-239 477,-75 477,-52.2285 416.084,-41.9673 368.9604,-37.4363"/>
<polygon fill="#000000" stroke="#000000" points="369.1122,-33.9359 358.8395,-36.5287 368.487,-40.9079 369.1122,-33.9359"/>
<text text-anchor="start" x="477" y="-154" font-family="Helvetica,sans-Serif" font-size="10.00" fill="#000000">f_stop &#160;&#160;</text>
</g>
<!-- state_ACK&#45;&gt;state_BUSY -->
<g id="edge12" class="edge transition">
<title>state_ACK&#45;&gt;state_BUSY</title>
<path fill="none" stroke="#000000" d="M455.5221,-266.9115C464.7843,-263.2368 474.4411,-258.8891 483,-254 498.3197,-245.2488 513.8718,-233.3889 526.4998,-222.8363"/>
<polygon fill="#000000" stroke="#000000" points="529.0134,-225.2923 534.3442,-216.1362 524.4671,-219.9696 529.0134,-225.2923"/>
<text text-anchor="start" x="513" y="-236" font-family="Helvetica,sans-Serif" font-size="10.00" fill="#000000">f_nack &#160;&#160;</text>
</g>
<!-- state_DATA&#45;&gt;state_START -->
<g id="edge14" class="edge transition">
<title>state_DATA&#45;&gt;state_START</title>
<path fill="none" stroke="#000000" d="M282.5958,-210.8542C268.4813,-216.2979 253.2991,-223.5995 241,-233 140.7325,-309.6367 163,-318.5989 163,-335.5 163,-403 163,-403 163,-403 163,-417.7104 195.4851,-428.1839 226.7915,-434.8619"/>
<polygon fill="#000000" stroke="#000000" points="226.3768,-438.3488 236.8718,-436.8973 227.7623,-431.4872 226.3768,-438.3488"/>
<text text-anchor="start" x="161" y="-318" font-family="Helvetica,sans-Serif" font-size="10.00" fill="#000000">f_start_repeated &#160;&#160;</text>
</g>
<!-- state_DATA&#45;&gt;state_ACK -->
<g id="edge16" class="edge transition">
<title>state_DATA&#45;&gt;state_ACK</title>
<path fill="none" stroke="#000000" d="M367.3101,-216.0881C375.4273,-220.8308 383.4471,-226.4788 390,-233 395.6348,-238.6076 400.4,-245.6924 404.2499,-252.6488"/>
<polygon fill="#000000" stroke="#000000" points="401.2934,-254.5585 408.9281,-261.9044 407.5407,-251.4008 401.2934,-254.5585"/>
<text text-anchor="start" x="399" y="-236" font-family="Helvetica,sans-Serif" font-size="10.00" fill="#000000">f_2ack &#160;&#160;</text>
</g>
<!-- state_DATA&#45;&gt;state_STOP -->
<g id="edge13" class="edge transition">
<title>state_DATA&#45;&gt;state_STOP</title>
<path fill="none" stroke="#000000" d="M342.1415,-179.6618C346.4829,-172.9857 350,-165.0829 350,-157 350,-157 350,-157 350,-75 350,-69.7532 348.3215,-64.8381 345.6995,-60.3611"/>
<polygon fill="#000000" stroke="#000000" points="348.4789,-58.2334 339.6881,-52.3195 342.8723,-62.4246 348.4789,-58.2334"/>
<text text-anchor="start" x="350" y="-113" font-family="Helvetica,sans-Serif" font-size="10.00" fill="#000000">f_stop &#160;&#160;</text>
</g>
<!-- state_DATA&#45;&gt;state_ERR -->
<g id="edge15" class="edge transition">
<title>state_DATA&#45;&gt;state_ERR</title>
<path fill="none" stroke="#000000" d="M312.6841,-179.8015C304.6053,-168.7606 294.1598,-154.4851 285.1984,-142.2378"/>
<polygon fill="#000000" stroke="#000000" points="288.0085,-140.1511 279.2787,-134.1476 282.3592,-144.2847 288.0085,-140.1511"/>
<text text-anchor="start" x="299" y="-154" font-family="Helvetica,sans-Serif" font-size="10.00" fill="#000000">f_start &#160;&#160;</text>
</g>
<!-- state_STOP&#45;&gt;state_WAIT -->
<g id="edge18" class="edge transition">
<title>state_STOP&#45;&gt;state_WAIT</title>
<path fill="none" stroke="#000000" d="M358.6067,-35.2222C445.2938,-38.2355 631,-47.8582 631,-75 631,-224.5 631,-224.5 631,-224.5 631,-297.984 610,-315.016 610,-388.5 610,-485 610,-485 610,-485 610,-493.7128 605.6604,-500.6945 599.2961,-506.2489"/>
<polygon fill="#000000" stroke="#000000" points="597.1498,-503.4805 591.0336,-512.1316 601.2098,-509.1828 597.1498,-503.4805"/>
<text text-anchor="start" x="628" y="-277" font-family="Helvetica,sans-Serif" font-size="10.00" fill="#000000">not (f_start) &#160;&#160;</text>
</g>
<!-- state_STOP&#45;&gt;state_START -->
<g id="edge17" class="edge transition">
<title>state_STOP&#45;&gt;state_START</title>
<path fill="none" stroke="#000000" d="M271.414,-36.0476C193.407,-40.2998 38,-51.6956 38,-75 38,-403 38,-403 38,-403 38,-422.009 153.763,-434.2319 226.4647,-440.0338"/>
<polygon fill="#000000" stroke="#000000" points="226.6182,-443.5563 236.8598,-440.8433 227.1617,-436.5774 226.6182,-443.5563"/>
<text text-anchor="start" x="38" y="-236" font-family="Helvetica,sans-Serif" font-size="10.00" fill="#000000">f_start &#160;&#160;</text>
</g>
<!-- state_BUSY&#45;&gt;state_START -->
<g id="edge19" class="edge transition">
<title>state_BUSY&#45;&gt;state_START</title>
<path fill="none" stroke="#000000" d="M559.3759,-216.1844C561.0296,-225.4527 561.2383,-236.5242 556,-245 547.1179,-259.3715 533.4636,-249.5896 522,-262 507.5239,-277.6717 504,-285.1655 504,-306.5 504,-403 504,-403 504,-403 504,-419.5495 406.545,-432.2315 341.3603,-438.8631"/>
<polygon fill="#000000" stroke="#000000" points="340.7995,-435.4016 331.1955,-439.8752 341.4931,-442.3671 340.7995,-435.4016"/>
<text text-anchor="start" x="504" y="-318" font-family="Helvetica,sans-Serif" font-size="10.00" fill="#000000">f_start &#160;&#160;</text>
</g>
<!-- state_BUSY&#45;&gt;state_STOP -->
<g id="edge20" class="edge transition">
<title>state_BUSY&#45;&gt;state_STOP</title>
<path fill="none" stroke="#000000" d="M548.2492,-179.8177C546.4854,-172.7667 545,-164.579 545,-157 545,-157 545,-157 545,-75 545,-57.1811 436.6236,-44.5062 368.6589,-38.3095"/>
<polygon fill="#000000" stroke="#000000" points="368.803,-34.8085 358.5316,-37.4065 368.1813,-41.7809 368.803,-34.8085"/>
<text text-anchor="start" x="545" y="-113" font-family="Helvetica,sans-Serif" font-size="10.00" fill="#000000">f_stop &#160;&#160;</text>
</g>
<!-- state_ERR&#45;&gt;state_STOP -->
<g id="edge21" class="edge transition">
<title>state_ERR&#45;&gt;state_STOP</title>
<path fill="none" stroke="#000000" d="M276.8747,-97.8015C283.3454,-86.973 291.6754,-73.033 298.8978,-60.9466"/>
<polygon fill="#000000" stroke="#000000" points="302.0306,-62.5271 304.1557,-52.1476 296.0217,-58.9364 302.0306,-62.5271"/>
<text text-anchor="start" x="293" y="-72" font-family="Helvetica,sans-Serif" font-size="10.00" fill="#000000">f_stop &#160;&#160;</text>
</g>
</g>
</svg>
