<?xml version="1.0" encoding="UTF-8" standalone="no"?>
<!DOCTYPE svg PUBLIC "-//W3C//DTD SVG 1.1//EN"
 "http://www.w3.org/Graphics/SVG/1.1/DTD/svg11.dtd">
<!-- Generated by graphviz version 2.40.1 (20161225.0304)
 -->
<!-- Title: state transitions Pages: 1 -->
<svg width="830pt" height="598pt"
 viewBox="0.00 0.00 830.45 598.00" xmlns="http://www.w3.org/2000/svg" xmlns:xlink="http://www.w3.org/1999/xlink">
<g id="graph0" class="graph" transform="scale(1 1) rotate(0) translate(4 594)">
<title>state transitions</title>
<polygon fill="#ffffff" stroke="transparent" points="-4,4 -4,-594 826.455,-594 826.455,4 -4,4"/>
<g id="clust1" class="cluster state regular">
<title>cluster_FSM_I2C</title>
<path fill="none" stroke="#000000" stroke-width="2" d="M20,-8C20,-8 785,-8 785,-8 791,-8 797,-14 797,-20 797,-20 797,-570 797,-570 797,-576 791,-582 785,-582 785,-582 20,-582 20,-582 14,-582 8,-576 8,-570 8,-570 8,-20 8,-20 8,-14 14,-8 20,-8"/>
<text text-anchor="start" x="377.1662" y="-563.2" font-family="Helvetica,sans-Serif" font-size="12.00" fill="#000000">FSM_I2C</text>
</g>
<!-- FSM_I2C -->
<!-- state_WAIT -->
<g id="node2" class="node state regular">
<title>state_WAIT</title>
<polygon fill="#ffffff" fill-opacity="0.003922" stroke="transparent" stroke-width="2" points="443,-544 359,-544 359,-508 443,-508 443,-544"/>
<text text-anchor="start" x="369.6614" y="-522.2" font-family="Helvetica,sans-Serif" font-size="12.00" fill="#000000">state_WAIT</text>
<path fill="none" stroke="#000000" stroke-width="2" d="M371.3333,-509C371.3333,-509 430.6667,-509 430.6667,-509 436.3333,-509 442,-514.6667 442,-520.3333 442,-520.3333 442,-531.6667 442,-531.6667 442,-537.3333 436.3333,-543 430.6667,-543 430.6667,-543 371.3333,-543 371.3333,-543 365.6667,-543 360,-537.3333 360,-531.6667 360,-531.6667 360,-520.3333 360,-520.3333 360,-514.6667 365.6667,-509 371.3333,-509"/>
</g>
<!-- state_START -->
<g id="node3" class="node state regular">
<title>state_START</title>
<polygon fill="#ffffff" fill-opacity="0.003922" stroke="transparent" stroke-width="2" points="448,-462 354,-462 354,-426 448,-426 448,-462"/>
<text text-anchor="start" x="364.994" y="-440.2" font-family="Helvetica,sans-Serif" font-size="12.00" fill="#000000">state_START</text>
<path fill="none" stroke="#000000" stroke-width="2" d="M366.3333,-427C366.3333,-427 435.6667,-427 435.6667,-427 441.3333,-427 447,-432.6667 447,-438.3333 447,-438.3333 447,-449.6667 447,-449.6667 447,-455.3333 441.3333,-461 435.6667,-461 435.6667,-461 366.3333,-461 366.3333,-461 360.6667,-461 355,-455.3333 355,-449.6667 355,-449.6667 355,-438.3333 355,-438.3333 355,-432.6667 360.6667,-427 366.3333,-427"/>
</g>
<!-- state_WAIT&#45;&gt;state_START -->
<g id="edge2" class="edge transition">
<title>state_WAIT&#45;&gt;state_START</title>
<path fill="none" stroke="#000000" d="M401,-507.8015C401,-497.3976 401,-484.1215 401,-472.3768"/>
<polygon fill="#000000" stroke="#000000" points="404.5001,-472.1476 401,-462.1476 397.5001,-472.1476 404.5001,-472.1476"/>
<text text-anchor="start" x="401" y="-482" font-family="Helvetica,sans-Serif" font-size="10.00" fill="#000000">f_start &#160;&#160;</text>
</g>
<!-- state_BUSY -->
<g id="node8" class="node state regular">
<title>state_BUSY</title>
<polygon fill="#ffffff" fill-opacity="0.003922" stroke="transparent" stroke-width="2" points="129.5,-216 42.5,-216 42.5,-180 129.5,-180 129.5,-216"/>
<text text-anchor="start" x="53.8234" y="-194.2" font-family="Helvetica,sans-Serif" font-size="12.00" fill="#000000">state_BUSY</text>
<path fill="none" stroke="#000000" stroke-width="2" d="M54.8333,-181C54.8333,-181 117.1667,-181 117.1667,-181 122.8333,-181 128.5,-186.6667 128.5,-192.3333 128.5,-192.3333 128.5,-203.6667 128.5,-203.6667 128.5,-209.3333 122.8333,-215 117.1667,-215 117.1667,-215 54.8333,-215 54.8333,-215 49.1667,-215 43.5,-209.3333 43.5,-203.6667 43.5,-203.6667 43.5,-192.3333 43.5,-192.3333 43.5,-186.6667 49.1667,-181 54.8333,-181"/>
</g>
<!-- state_WAIT&#45;&gt;state_BUSY -->
<g id="edge1" class="edge transition">
<title>state_WAIT&#45;&gt;state_BUSY</title>
<path fill="none" stroke="#000000" d="M358.6489,-525.5605C262.8934,-524.0043 38,-516.9486 38,-485 38,-485 38,-485 38,-388.5 38,-317.2188 42.52,-295.2623 69.944,-225.7029"/>
<polygon fill="#000000" stroke="#000000" points="73.3443,-226.6229 73.778,-216.037 66.8374,-224.0419 73.3443,-226.6229"/>
<text text-anchor="start" x="39" y="-359" font-family="Helvetica,sans-Serif" font-size="10.00" fill="#000000">f_busy &#160;&#160;</text>
</g>
<!-- state_ADDR -->
<g id="node4" class="node state regular">
<title>state_ADDR</title>
<polygon fill="#ffffff" fill-opacity="0.003922" stroke="transparent" stroke-width="2" points="544,-380 456,-380 456,-344 544,-344 544,-380"/>
<text text-anchor="start" x="466.6634" y="-358.2" font-family="Helvetica,sans-Serif" font-size="12.00" fill="#000000">state_ADDR</text>
<path fill="none" stroke="#000000" stroke-width="2" d="M468.3333,-345C468.3333,-345 531.6667,-345 531.6667,-345 537.3333,-345 543,-350.6667 543,-356.3333 543,-356.3333 543,-367.6667 543,-367.6667 543,-373.3333 537.3333,-379 531.6667,-379 531.6667,-379 468.3333,-379 468.3333,-379 462.6667,-379 457,-373.3333 457,-367.6667 457,-367.6667 457,-356.3333 457,-356.3333 457,-350.6667 462.6667,-345 468.3333,-345"/>
</g>
<!-- state_START&#45;&gt;state_ADDR -->
<g id="edge4" class="edge transition">
<title>state_START&#45;&gt;state_ADDR</title>
<path fill="none" stroke="#000000" d="M422.9713,-425.8015C436.8139,-414.336 454.8678,-399.3822 470.0176,-386.8339"/>
<polygon fill="#000000" stroke="#000000" points="472.6214,-389.2219 478.0901,-380.1476 468.1562,-383.831 472.6214,-389.2219"/>
<text text-anchor="start" x="457" y="-400" font-family="Helvetica,sans-Serif" font-size="10.00" fill="#000000">f_negedge_sck &#160;&#160;</text>
</g>
<!-- state_STOP -->
<g id="node7" class="node state regular">
<title>state_STOP</title>
<polygon fill="#ffffff" fill-opacity="0.003922" stroke="transparent" stroke-width="2" points="591.5,-52 504.5,-52 504.5,-16 591.5,-16 591.5,-52"/>
<text text-anchor="start" x="515.8234" y="-30.2" font-family="Helvetica,sans-Serif" font-size="12.00" fill="#000000">state_STOP</text>
<path fill="none" stroke="#000000" stroke-width="2" d="M516.8333,-17C516.8333,-17 579.1667,-17 579.1667,-17 584.8333,-17 590.5,-22.6667 590.5,-28.3333 590.5,-28.3333 590.5,-39.6667 590.5,-39.6667 590.5,-45.3333 584.8333,-51 579.1667,-51 579.1667,-51 516.8333,-51 516.8333,-51 511.1667,-51 505.5,-45.3333 505.5,-39.6667 505.5,-39.6667 505.5,-28.3333 505.5,-28.3333 505.5,-22.6667 511.1667,-17 516.8333,-17"/>
</g>
<!-- state_START&#45;&gt;state_STOP -->
<g id="edge3" class="edge transition">
<title>state_START&#45;&gt;state_STOP</title>
<path fill="none" stroke="#000000" d="M448.2156,-441.9317C528.9722,-437.7564 685,-426.6318 685,-403 685,-403 685,-403 685,-306.5 685,-285.1655 692.8597,-280.7706 703,-262 712.6395,-244.1565 729,-244.7807 729,-224.5 729,-224.5 729,-224.5 729,-75 729,-61.833 655.2015,-48.7644 601.8503,-41.0371"/>
<polygon fill="#000000" stroke="#000000" points="602.208,-37.5528 591.8151,-39.611 601.2231,-44.4832 602.208,-37.5528"/>
<text text-anchor="start" x="727" y="-236" font-family="Helvetica,sans-Serif" font-size="10.00" fill="#000000">f_stop &#160;&#160;</text>
</g>
<!-- state_ACK -->
<g id="node5" class="node state regular">
<title>state_ACK</title>
<polygon fill="#ffffff" fill-opacity="0.003922" stroke="transparent" stroke-width="2" points="415.5,-298 336.5,-298 336.5,-262 415.5,-262 415.5,-298"/>
<text text-anchor="start" x="347.8248" y="-276.2" font-family="Helvetica,sans-Serif" font-size="12.00" fill="#000000">state_ACK</text>
<path fill="none" stroke="#000000" stroke-width="2" d="M348.8333,-263C348.8333,-263 403.1667,-263 403.1667,-263 408.8333,-263 414.5,-268.6667 414.5,-274.3333 414.5,-274.3333 414.5,-285.6667 414.5,-285.6667 414.5,-291.3333 408.8333,-297 403.1667,-297 403.1667,-297 348.8333,-297 348.8333,-297 343.1667,-297 337.5,-291.3333 337.5,-285.6667 337.5,-285.6667 337.5,-274.3333 337.5,-274.3333 337.5,-268.6667 343.1667,-263 348.8333,-263"/>
</g>
<!-- state_ADDR&#45;&gt;state_ACK -->
<g id="edge7" class="edge transition">
<title>state_ADDR&#45;&gt;state_ACK</title>
<path fill="none" stroke="#000000" d="M455.6032,-348.3378C441.9096,-342.9349 427.2723,-335.862 415.207,-327 407.5742,-321.3937 400.504,-313.9944 394.5297,-306.73"/>
<polygon fill="#000000" stroke="#000000" points="396.9469,-304.1357 388.0519,-298.3798 391.416,-308.4264 396.9469,-304.1357"/>
<text text-anchor="start" x="415" y="-318" font-family="Helvetica,sans-Serif" font-size="10.00" fill="#000000">f_2ack &#160;&#160;</text>
</g>
<!-- state_ADDR&#45;&gt;state_STOP -->
<g id="edge5" class="edge transition">
<title>state_ADDR&#45;&gt;state_STOP</title>
<path fill="none" stroke="#000000" d="M544.1054,-352.8957C572.4506,-345.7307 604,-334.6826 604,-321 604,-321 604,-321 604,-253.5 604,-216.5282 590,-208.4718 590,-171.5 590,-171.5 590,-171.5 590,-75 590,-69.5356 588.1571,-64.5615 585.2434,-60.112"/>
<polygon fill="#000000" stroke="#000000" points="587.6683,-57.5609 578.5233,-52.2111 582.3361,-62.0961 587.6683,-57.5609"/>
<text text-anchor="start" x="597" y="-195" font-family="Helvetica,sans-Serif" font-size="10.00" fill="#000000">f_stop &#160;&#160;</text>
</g>
<!-- state_ERR -->
<g id="node9" class="node state regular">
<title>state_ERR</title>
<polygon fill="#ffffff" fill-opacity="0.003922" stroke="transparent" stroke-width="2" points="484,-134 404,-134 404,-98 484,-98 484,-134"/>
<text text-anchor="start" x="414.9948" y="-112.2" font-family="Helvetica,sans-Serif" font-size="12.00" fill="#000000">state_ERR</text>
<path fill="none" stroke="#000000" stroke-width="2" d="M416.3333,-99C416.3333,-99 471.6667,-99 471.6667,-99 477.3333,-99 483,-104.6667 483,-110.3333 483,-110.3333 483,-121.6667 483,-121.6667 483,-127.3333 477.3333,-133 471.6667,-133 471.6667,-133 416.3333,-133 416.3333,-133 410.6667,-133 405,-127.3333 405,-121.6667 405,-121.6667 405,-110.3333 405,-110.3333 405,-104.6667 410.6667,-99 416.3333,-99"/>
</g>
<!-- state_ADDR&#45;&gt;state_ERR -->
<g id="edge6" class="edge transition">
<title>state_ADDR&#45;&gt;state_ERR</title>
<path fill="none" stroke="#000000" d="M533.1768,-343.7968C539.9216,-337.6987 545,-330.0893 545,-321 545,-321 545,-321 545,-224.5 545,-191.785 560.5225,-177.2515 541,-151 534.8207,-142.6908 514.4195,-134.7443 493.9111,-128.5295"/>
<polygon fill="#000000" stroke="#000000" points="494.7948,-125.1416 484.2154,-125.7125 492.8417,-131.8636 494.7948,-125.1416"/>
<text text-anchor="start" x="545" y="-236" font-family="Helvetica,sans-Serif" font-size="10.00" fill="#000000">f_start &#160;&#160;</text>
</g>
<!-- state_ACK&#45;&gt;state_START -->
<g id="edge9" class="edge transition">
<title>state_ACK&#45;&gt;state_START</title>
<path fill="none" stroke="#000000" d="M360.7868,-298.0272C356.5095,-304.797 353,-312.8384 353,-321 353,-403 353,-403 353,-403 353,-408.7537 355.0187,-413.8719 358.2282,-418.3732"/>
<polygon fill="#000000" stroke="#000000" points="355.7518,-420.8503 365.1124,-425.8132 360.8898,-416.0962 355.7518,-420.8503"/>
<text text-anchor="start" x="353" y="-359" font-family="Helvetica,sans-Serif" font-size="10.00" fill="#000000">f_start_repeated &#160;&#160;</text>
</g>
<!-- state_ACK&#45;&gt;state_ADDR -->
<g id="edge10" class="edge transition">
<title>state_ACK&#45;&gt;state_ADDR</title>
<path fill="none" stroke="#000000" d="M415.6241,-294.3743C428.422,-299.8899 442.3126,-306.8494 454,-315 462.7095,-321.0739 471.1618,-328.9375 478.3943,-336.4888"/>
<polygon fill="#000000" stroke="#000000" points="475.8344,-338.8757 485.1846,-343.8582 480.9823,-334.1324 475.8344,-338.8757"/>
<text text-anchor="start" x="468" y="-318" font-family="Helvetica,sans-Serif" font-size="10.00" fill="#000000">f_2addr &#160;&#160;</text>
</g>
<!-- state_DATA -->
<g id="node6" class="node state regular">
<title>state_DATA</title>
<polygon fill="#ffffff" fill-opacity="0.003922" stroke="transparent" stroke-width="2" points="392,-216 306,-216 306,-180 392,-180 392,-216"/>
<text text-anchor="start" x="316.6594" y="-194.2" font-family="Helvetica,sans-Serif" font-size="12.00" fill="#000000">state_DATA</text>
<path fill="none" stroke="#000000" stroke-width="2" d="M318.3333,-181C318.3333,-181 379.6667,-181 379.6667,-181 385.3333,-181 391,-186.6667 391,-192.3333 391,-192.3333 391,-203.6667 391,-203.6667 391,-209.3333 385.3333,-215 379.6667,-215 379.6667,-215 318.3333,-215 318.3333,-215 312.6667,-215 307,-209.3333 307,-203.6667 307,-203.6667 307,-192.3333 307,-192.3333 307,-186.6667 312.6667,-181 318.3333,-181"/>
</g>
<!-- state_ACK&#45;&gt;state_DATA -->
<g id="edge12" class="edge transition">
<title>state_ACK&#45;&gt;state_DATA</title>
<path fill="none" stroke="#000000" d="M388.7428,-261.7595C393.309,-252.8892 396.3672,-242.1858 392,-233 390.3752,-229.5825 388.2354,-226.3892 385.7771,-223.432"/>
<polygon fill="#000000" stroke="#000000" points="388.1575,-220.8603 378.6608,-216.163 383.1554,-225.7572 388.1575,-220.8603"/>
<text text-anchor="start" x="394" y="-236" font-family="Helvetica,sans-Serif" font-size="10.00" fill="#000000">f_2bytes &#160;&#160;</text>
</g>
<!-- state_ACK&#45;&gt;state_STOP -->
<g id="edge8" class="edge transition">
<title>state_ACK&#45;&gt;state_STOP</title>
<path fill="none" stroke="#000000" d="M415.5753,-274.6229C451.8648,-268.5482 500,-257.0825 500,-239 500,-239 500,-239 500,-171.5 500,-131.4669 518.3611,-88.3566 532.3712,-61.2891"/>
<polygon fill="#000000" stroke="#000000" points="535.4865,-62.8854 537.1081,-52.4153 529.3112,-59.5889 535.4865,-62.8854"/>
<text text-anchor="start" x="501" y="-154" font-family="Helvetica,sans-Serif" font-size="10.00" fill="#000000">f_stop &#160;&#160;</text>
</g>
<!-- state_ACK&#45;&gt;state_BUSY -->
<g id="edge11" class="edge transition">
<title>state_ACK&#45;&gt;state_BUSY</title>
<path fill="none" stroke="#000000" d="M336.2848,-268.7702C285.3591,-254.3705 196.8414,-229.3414 139.8756,-213.2338"/>
<polygon fill="#000000" stroke="#000000" points="140.546,-209.7862 129.9709,-210.4331 138.6413,-216.5221 140.546,-209.7862"/>
<text text-anchor="start" x="250" y="-236" font-family="Helvetica,sans-Serif" font-size="10.00" fill="#000000">f_end &#160;&#160;</text>
</g>
<!-- state_ACK&#45;&gt;state_BUSY -->
<g id="edge13" class="edge transition">
<title>state_ACK&#45;&gt;state_BUSY</title>
<path fill="none" stroke="#000000" d="M336.4516,-277.9849C261.5081,-273.7689 104.7753,-262.8974 88.17,-245 83.5761,-240.0486 81.7235,-233.3924 81.3205,-226.6492"/>
<polygon fill="#000000" stroke="#000000" points="84.834,-226.3329 81.6949,-216.2138 77.8385,-226.0818 84.834,-226.3329"/>
<text text-anchor="start" x="88" y="-236" font-family="Helvetica,sans-Serif" font-size="10.00" fill="#000000">f_nack &amp; f_negedge_sck &#160;&#160;</text>
</g>
<!-- state_DATA&#45;&gt;state_START -->
<g id="edge15" class="edge transition">
<title>state_DATA&#45;&gt;state_START</title>
<path fill="none" stroke="#000000" d="M305.9874,-204.2072C270.8628,-210.5262 227,-221.8505 227,-239 227,-403 227,-403 227,-403 227,-427.4622 292.9782,-437.3443 343.6784,-441.3269"/>
<polygon fill="#000000" stroke="#000000" points="343.6862,-444.8366 353.9131,-442.0689 344.1924,-437.8549 343.6862,-444.8366"/>
<text text-anchor="start" x="227" y="-318" font-family="Helvetica,sans-Serif" font-size="10.00" fill="#000000">f_start_repeated &#160;&#160;</text>
</g>
<!-- state_DATA&#45;&gt;state_ACK -->
<g id="edge17" class="edge transition">
<title>state_DATA&#45;&gt;state_ACK</title>
<path fill="none" stroke="#000000" d="M346.4045,-216.3043C345.8102,-225.1898 346.0971,-235.8875 349.207,-245 350.157,-247.7838 351.4258,-250.5206 352.8961,-253.1619"/>
<polygon fill="#000000" stroke="#000000" points="350.0887,-255.2632 358.5017,-261.7031 355.9409,-251.4224 350.0887,-255.2632"/>
<text text-anchor="start" x="349" y="-236" font-family="Helvetica,sans-Serif" font-size="10.00" fill="#000000">f_2ack &#160;&#160;</text>
</g>
<!-- state_DATA&#45;&gt;state_STOP -->
<g id="edge14" class="edge transition">
<title>state_DATA&#45;&gt;state_STOP</title>
<path fill="none" stroke="#000000" d="M347.0831,-179.6522C346.4951,-172.5809 346,-164.4226 346,-157 346,-157 346,-157 346,-75 346,-59.8622 434.2528,-46.8233 494.0916,-39.7222"/>
<polygon fill="#000000" stroke="#000000" points="494.6403,-43.1821 504.169,-38.5502 493.8316,-36.229 494.6403,-43.1821"/>
<text text-anchor="start" x="346" y="-113" font-family="Helvetica,sans-Serif" font-size="10.00" fill="#000000">f_stop &#160;&#160;</text>
</g>
<!-- state_DATA&#45;&gt;state_ERR -->
<g id="edge16" class="edge transition">
<title>state_DATA&#45;&gt;state_ERR</title>
<path fill="none" stroke="#000000" d="M370.0836,-179.8015C383.3668,-168.336 400.6914,-153.3822 415.229,-140.8339"/>
<polygon fill="#000000" stroke="#000000" points="417.6923,-143.3313 422.9754,-134.1476 413.1184,-138.0322 417.6923,-143.3313"/>
<text text-anchor="start" x="402" y="-154" font-family="Helvetica,sans-Serif" font-size="10.00" fill="#000000">f_start &#160;&#160;</text>
</g>
<!-- state_STOP&#45;&gt;state_WAIT -->
<g id="edge19" class="edge transition">
<title>state_STOP&#45;&gt;state_WAIT</title>
<path fill="none" stroke="#000000" d="M591.7406,-37.0891C660.9649,-42.573 788,-55.3179 788,-75 788,-224.5 788,-224.5 788,-224.5 788,-269.1396 730,-261.8604 730,-306.5 730,-485 730,-485 730,-485 730,-488.4458 545.7682,-509.6935 453.0314,-520.1707"/>
<polygon fill="#000000" stroke="#000000" points="452.5469,-516.703 443.0023,-521.3021 453.3316,-523.6589 452.5469,-516.703"/>
<text text-anchor="start" x="763" y="-277" font-family="Helvetica,sans-Serif" font-size="10.00" fill="#000000">not (f_start) &#160;&#160;</text>
</g>
<!-- state_STOP&#45;&gt;state_START -->
<g id="edge18" class="edge transition">
<title>state_STOP&#45;&gt;state_START</title>
<path fill="none" stroke="#000000" d="M591.7126,-43.5439C619.0091,-50.8116 649,-61.8002 649,-75 649,-403 649,-403 649,-403 649,-422.2247 531.4988,-434.4092 458.2551,-440.1369"/>
<polygon fill="#000000" stroke="#000000" points="457.9351,-436.651 448.2306,-440.9023 458.4681,-443.6307 457.9351,-436.651"/>
<text text-anchor="start" x="649" y="-236" font-family="Helvetica,sans-Serif" font-size="10.00" fill="#000000">f_start &#160;&#160;</text>
</g>
<!-- state_BUSY&#45;&gt;state_START -->
<g id="edge20" class="edge transition">
<title>state_BUSY&#45;&gt;state_START</title>
<path fill="none" stroke="#000000" d="M77.7485,-216.334C74.9235,-225.2265 73.3003,-235.9215 77,-245 115.848,-340.3277 139.1564,-371.5103 231,-418 250.3186,-427.7787 302.3162,-434.8228 343.762,-439.092"/>
<polygon fill="#000000" stroke="#000000" points="343.4763,-442.5808 353.7745,-440.0914 344.1716,-435.6154 343.4763,-442.5808"/>
<text text-anchor="start" x="116" y="-318" font-family="Helvetica,sans-Serif" font-size="10.00" fill="#000000">f_start &#160;&#160;</text>
</g>
<!-- state_BUSY&#45;&gt;state_STOP -->
<g id="edge21" class="edge transition">
<title>state_BUSY&#45;&gt;state_STOP</title>
<path fill="none" stroke="#000000" d="M129.6343,-186.4246C152.9888,-178.8999 177,-168.3932 177,-157 177,-157 177,-157 177,-75 177,-59.2396 391.3069,-43.7524 494.1611,-37.2271"/>
<polygon fill="#000000" stroke="#000000" points="494.5898,-40.7072 504.3506,-36.5869 494.1508,-33.721 494.5898,-40.7072"/>
<text text-anchor="start" x="177" y="-113" font-family="Helvetica,sans-Serif" font-size="10.00" fill="#000000">f_stop &#160;&#160;</text>
</g>
<!-- state_ERR&#45;&gt;state_STOP -->
<g id="edge22" class="edge transition">
<title>state_ERR&#45;&gt;state_STOP</title>
<path fill="none" stroke="#000000" d="M448.8608,-97.5857C452.1837,-88.0263 457.4601,-76.7568 465.428,-69 473.7117,-60.9358 484.1364,-54.6051 494.7632,-49.6808"/>
<polygon fill="#000000" stroke="#000000" points="496.2731,-52.8422 504.1053,-45.7072 493.5332,-46.4006 496.2731,-52.8422"/>
<text text-anchor="start" x="465" y="-72" font-family="Helvetica,sans-Serif" font-size="10.00" fill="#000000">f_stop &#160;&#160;</text>
</g>
</g>
</svg>
