<?xml version="1.0" encoding="UTF-8" standalone="no"?>
<!DOCTYPE svg PUBLIC "-//W3C//DTD SVG 1.1//EN"
 "http://www.w3.org/Graphics/SVG/1.1/DTD/svg11.dtd">
<!-- Generated by graphviz version 2.40.1 (20161225.0304)
 -->
<!-- Title: state transitions Pages: 1 -->
<svg width="203pt" height="270pt"
 viewBox="0.00 0.00 203.00 270.00" xmlns="http://www.w3.org/2000/svg" xmlns:xlink="http://www.w3.org/1999/xlink">
<g id="graph0" class="graph" transform="scale(1 1) rotate(0) translate(4 266)">
<title>state transitions</title>
<polygon fill="#ffffff" stroke="transparent" points="-4,4 -4,-266 199,-266 199,4 -4,4"/>
<g id="clust1" class="cluster state regular">
<title>cluster_FSM_i2c</title>
<path fill="none" stroke="#000000" stroke-width="2" d="M20,-8C20,-8 175,-8 175,-8 181,-8 187,-14 187,-20 187,-20 187,-242 187,-242 187,-248 181,-254 175,-254 175,-254 20,-254 20,-254 14,-254 8,-248 8,-242 8,-242 8,-20 8,-20 8,-14 14,-8 20,-8"/>
<text text-anchor="start" x="74.3336" y="-235.2" font-family="Helvetica,sans-Serif" font-size="12.00" fill="#000000">FSM_i2c</text>
</g>
<!-- FSM_i2c -->
<!-- st_START -->
<g id="node2" class="node state regular">
<title>st_START</title>
<polygon fill="#ffffff" fill-opacity="0.003922" stroke="transparent" stroke-width="2" points="93.5,-216 16.5,-216 16.5,-180 93.5,-180 93.5,-216"/>
<text text-anchor="start" x="27.8322" y="-194.2" font-family="Helvetica,sans-Serif" font-size="12.00" fill="#000000">st_START</text>
<path fill="none" stroke="#000000" stroke-width="2" d="M28.8333,-181C28.8333,-181 81.1667,-181 81.1667,-181 86.8333,-181 92.5,-186.6667 92.5,-192.3333 92.5,-192.3333 92.5,-203.6667 92.5,-203.6667 92.5,-209.3333 86.8333,-215 81.1667,-215 81.1667,-215 28.8333,-215 28.8333,-215 23.1667,-215 17.5,-209.3333 17.5,-203.6667 17.5,-203.6667 17.5,-192.3333 17.5,-192.3333 17.5,-186.6667 23.1667,-181 28.8333,-181"/>
</g>
<!-- st_DATA -->
<g id="node3" class="node state regular">
<title>st_DATA</title>
<polygon fill="#ffffff" fill-opacity="0.003922" stroke="transparent" stroke-width="2" points="86,-134 16,-134 16,-98 86,-98 86,-134"/>
<text text-anchor="start" x="26.9976" y="-112.2" font-family="Helvetica,sans-Serif" font-size="12.00" fill="#000000">st_DATA</text>
<path fill="none" stroke="#000000" stroke-width="2" d="M28.3333,-99C28.3333,-99 73.6667,-99 73.6667,-99 79.3333,-99 85,-104.6667 85,-110.3333 85,-110.3333 85,-121.6667 85,-121.6667 85,-127.3333 79.3333,-133 73.6667,-133 73.6667,-133 28.3333,-133 28.3333,-133 22.6667,-133 17,-127.3333 17,-121.6667 17,-121.6667 17,-110.3333 17,-110.3333 17,-104.6667 22.6667,-99 28.3333,-99"/>
</g>
<!-- st_START&#45;&gt;st_DATA -->
<g id="edge1" class="edge transition">
<title>st_START&#45;&gt;st_DATA</title>
<path fill="none" stroke="#000000" d="M54.1123,-179.8015C53.6048,-169.3976 52.9571,-156.1215 52.3842,-144.3768"/>
<polygon fill="#000000" stroke="#000000" points="55.8684,-143.9651 51.8852,-134.1476 48.8767,-144.3063 55.8684,-143.9651"/>
<text text-anchor="middle" x="54.3895" y="-154" font-family="Helvetica,sans-Serif" font-size="10.00" fill="#000000"> </text>
</g>
<!-- st_DATA&#45;&gt;st_DATA -->
<g id="edge3" class="edge transition">
<title>st_DATA&#45;&gt;st_DATA</title>
<path fill="none" stroke="#000000" d="M86.0666,-120.8738C98.2008,-120.9254 108,-119.3008 108,-116 108,-113.6791 103.1554,-112.187 96.061,-111.5234"/>
<polygon fill="#000000" stroke="#000000" points="96.1978,-108.0262 86.0666,-111.1262 95.9197,-115.0207 96.1978,-108.0262"/>
<text text-anchor="start" x="108" y="-113" font-family="Helvetica,sans-Serif" font-size="10.00" fill="#000000">not (cnt == &#39;d8) &#160;&#160;</text>
</g>
<!-- st_ACK -->
<g id="node4" class="node state regular">
<title>st_ACK</title>
<polygon fill="#ffffff" fill-opacity="0.003922" stroke="transparent" stroke-width="2" points="125,-52 63,-52 63,-16 125,-16 125,-52"/>
<text text-anchor="start" x="73.663" y="-30.2" font-family="Helvetica,sans-Serif" font-size="12.00" fill="#000000">st_ACK</text>
<path fill="none" stroke="#000000" stroke-width="2" d="M75.3333,-17C75.3333,-17 112.6667,-17 112.6667,-17 118.3333,-17 124,-22.6667 124,-28.3333 124,-28.3333 124,-39.6667 124,-39.6667 124,-45.3333 118.3333,-51 112.6667,-51 112.6667,-51 75.3333,-51 75.3333,-51 69.6667,-51 64,-45.3333 64,-39.6667 64,-39.6667 64,-28.3333 64,-28.3333 64,-22.6667 69.6667,-17 75.3333,-17"/>
</g>
<!-- st_DATA&#45;&gt;st_ACK -->
<g id="edge2" class="edge transition">
<title>st_DATA&#45;&gt;st_ACK</title>
<path fill="none" stroke="#000000" d="M52.4115,-97.8017C53.6897,-88.7413 56.1245,-77.8604 60.762,-69 62.405,-65.8609 64.4119,-62.804 66.6178,-59.8877"/>
<polygon fill="#000000" stroke="#000000" points="69.4304,-61.9824 73.2241,-52.09 64.0895,-57.4574 69.4304,-61.9824"/>
<text text-anchor="start" x="60" y="-72" font-family="Helvetica,sans-Serif" font-size="10.00" fill="#000000">cnt == &#39;d8 &#160;&#160;</text>
</g>
<!-- st_ACK&#45;&gt;st_DATA -->
<g id="edge4" class="edge transition">
<title>st_ACK&#45;&gt;st_DATA</title>
<path fill="none" stroke="#000000" d="M109.7956,-52.3862C115.4719,-61.2911 119.3066,-71.9814 114,-81 109.5306,-88.5958 102.7512,-94.6614 95.2714,-99.4638"/>
<polygon fill="#000000" stroke="#000000" points="93.2602,-96.5795 86.2654,-104.5371 96.6959,-102.6784 93.2602,-96.5795"/>
<text text-anchor="middle" x="117.3895" y="-72" font-family="Helvetica,sans-Serif" font-size="10.00" fill="#000000"> </text>
</g>
</g>
</svg>
