<?xml version="1.0" encoding="UTF-8" standalone="no"?>
<!DOCTYPE svg PUBLIC "-//W3C//DTD SVG 1.1//EN"
 "http://www.w3.org/Graphics/SVG/1.1/DTD/svg11.dtd">
<!-- Generated by graphviz version 2.40.1 (20161225.0304)
 -->
<!-- Title: state transitions Pages: 1 -->
<svg width="431pt" height="352pt"
 viewBox="0.00 0.00 431.00 352.00" xmlns="http://www.w3.org/2000/svg" xmlns:xlink="http://www.w3.org/1999/xlink">
<g id="graph0" class="graph" transform="scale(1 1) rotate(0) translate(4 348)">
<title>state transitions</title>
<polygon fill="#ffffff" stroke="transparent" points="-4,4 -4,-348 427,-348 427,4 -4,4"/>
<g id="clust1" class="cluster state regular">
<title>cluster_FSM_I2C_REG</title>
<path fill="none" stroke="#000000" stroke-width="2" d="M20,-8C20,-8 403,-8 403,-8 409,-8 415,-14 415,-20 415,-20 415,-324 415,-324 415,-330 409,-336 403,-336 403,-336 20,-336 20,-336 14,-336 8,-330 8,-324 8,-324 8,-20 8,-20 8,-14 14,-8 20,-8"/>
<text text-anchor="start" x="170.3306" y="-317.2" font-family="Helvetica,sans-Serif" font-size="12.00" fill="#000000">FSM_I2C_REG</text>
</g>
<!-- FSM_I2C_REG -->
<!-- state_REG_WAIT -->
<g id="node2" class="node state regular">
<title>state_REG_WAIT</title>
<polygon fill="#ffffff" fill-opacity="0.003922" stroke="transparent" stroke-width="2" points="291.5,-298 174.5,-298 174.5,-262 291.5,-262 291.5,-298"/>
<text text-anchor="start" x="185.8258" y="-276.2" font-family="Helvetica,sans-Serif" font-size="12.00" fill="#000000">state_REG_WAIT</text>
<path fill="none" stroke="#000000" stroke-width="2" d="M186.8333,-263C186.8333,-263 279.1667,-263 279.1667,-263 284.8333,-263 290.5,-268.6667 290.5,-274.3333 290.5,-274.3333 290.5,-285.6667 290.5,-285.6667 290.5,-291.3333 284.8333,-297 279.1667,-297 279.1667,-297 186.8333,-297 186.8333,-297 181.1667,-297 175.5,-291.3333 175.5,-285.6667 175.5,-285.6667 175.5,-274.3333 175.5,-274.3333 175.5,-268.6667 181.1667,-263 186.8333,-263"/>
</g>
<!-- state_REG_ADDR -->
<g id="node3" class="node state regular">
<title>state_REG_ADDR</title>
<polygon fill="#ffffff" fill-opacity="0.003922" stroke="transparent" stroke-width="2" points="219.5,-216 98.5,-216 98.5,-180 219.5,-180 219.5,-216"/>
<text text-anchor="start" x="109.8278" y="-194.2" font-family="Helvetica,sans-Serif" font-size="12.00" fill="#000000">state_REG_ADDR</text>
<path fill="none" stroke="#000000" stroke-width="2" d="M110.8333,-181C110.8333,-181 207.1667,-181 207.1667,-181 212.8333,-181 218.5,-186.6667 218.5,-192.3333 218.5,-192.3333 218.5,-203.6667 218.5,-203.6667 218.5,-209.3333 212.8333,-215 207.1667,-215 207.1667,-215 110.8333,-215 110.8333,-215 105.1667,-215 99.5,-209.3333 99.5,-203.6667 99.5,-203.6667 99.5,-192.3333 99.5,-192.3333 99.5,-186.6667 105.1667,-181 110.8333,-181"/>
</g>
<!-- state_REG_WAIT&#45;&gt;state_REG_ADDR -->
<g id="edge2" class="edge transition">
<title>state_REG_WAIT&#45;&gt;state_REG_ADDR</title>
<path fill="none" stroke="#000000" d="M174.4633,-266.0564C155.2272,-260.2065 137.3049,-252.9203 131.661,-245 127.1159,-238.6217 128.3885,-231.4409 132.1853,-224.6478"/>
<polygon fill="#000000" stroke="#000000" points="135.1508,-226.5172 138.0966,-216.3402 129.4472,-222.4589 135.1508,-226.5172"/>
<text text-anchor="start" x="131" y="-236" font-family="Helvetica,sans-Serif" font-size="10.00" fill="#000000">f_2write &#160;&#160;</text>
</g>
<!-- state_REG_DATA -->
<g id="node4" class="node state regular">
<title>state_REG_DATA</title>
<polygon fill="#ffffff" fill-opacity="0.003922" stroke="transparent" stroke-width="2" points="325.5,-134 206.5,-134 206.5,-98 325.5,-98 325.5,-134"/>
<text text-anchor="start" x="217.8238" y="-112.2" font-family="Helvetica,sans-Serif" font-size="12.00" fill="#000000">state_REG_DATA</text>
<path fill="none" stroke="#000000" stroke-width="2" d="M218.8333,-99C218.8333,-99 313.1667,-99 313.1667,-99 318.8333,-99 324.5,-104.6667 324.5,-110.3333 324.5,-110.3333 324.5,-121.6667 324.5,-121.6667 324.5,-127.3333 318.8333,-133 313.1667,-133 313.1667,-133 218.8333,-133 218.8333,-133 213.1667,-133 207.5,-127.3333 207.5,-121.6667 207.5,-121.6667 207.5,-110.3333 207.5,-110.3333 207.5,-104.6667 213.1667,-99 218.8333,-99"/>
</g>
<!-- state_REG_WAIT&#45;&gt;state_REG_DATA -->
<g id="edge1" class="edge transition">
<title>state_REG_WAIT&#45;&gt;state_REG_DATA</title>
<path fill="none" stroke="#000000" d="M263.212,-261.9469C278.3828,-250.8941 294.9978,-235.1857 302,-216 311.0926,-191.0865 298.6272,-162.6259 285.9449,-142.4546"/>
<polygon fill="#000000" stroke="#000000" points="288.8256,-140.4658 280.3695,-134.0825 282.9993,-144.3458 288.8256,-140.4658"/>
<text text-anchor="start" x="305" y="-195" font-family="Helvetica,sans-Serif" font-size="10.00" fill="#000000">f_2read &#160;&#160;</text>
</g>
<!-- state_REG_ADDR&#45;&gt;state_REG_WAIT -->
<g id="edge3" class="edge transition">
<title>state_REG_ADDR&#45;&gt;state_REG_WAIT</title>
<path fill="none" stroke="#000000" d="M175.3771,-216.1476C185.4276,-227.2846 198.4609,-241.727 209.5895,-254.0586"/>
<polygon fill="#000000" stroke="#000000" points="207.2789,-256.7225 216.577,-261.8015 212.4757,-252.0327 207.2789,-256.7225"/>
<text text-anchor="start" x="200" y="-236" font-family="Helvetica,sans-Serif" font-size="10.00" fill="#000000">f_2end &#160;&#160;</text>
</g>
<!-- state_REG_ADDR&#45;&gt;state_REG_DATA -->
<g id="edge5" class="edge transition">
<title>state_REG_ADDR&#45;&gt;state_REG_DATA</title>
<path fill="none" stroke="#000000" d="M180.2009,-179.9903C190.8819,-171.0777 204.1224,-160.2701 216.31,-151 221.0447,-147.3987 226.1037,-143.6862 231.1147,-140.0862"/>
<polygon fill="#000000" stroke="#000000" points="233.3122,-142.8184 239.4367,-134.1731 229.2577,-137.1121 233.3122,-142.8184"/>
<text text-anchor="start" x="216" y="-154" font-family="Helvetica,sans-Serif" font-size="10.00" fill="#000000">f_2data &#160;&#160;</text>
</g>
<!-- state_REG_ERR -->
<g id="node5" class="node state regular">
<title>state_REG_ERR</title>
<polygon fill="#ffffff" fill-opacity="0.003922" stroke="transparent" stroke-width="2" points="322,-52 210,-52 210,-16 322,-16 322,-52"/>
<text text-anchor="start" x="220.6592" y="-30.2" font-family="Helvetica,sans-Serif" font-size="12.00" fill="#000000">state_REG_ERR</text>
<path fill="none" stroke="#000000" stroke-width="2" d="M222.3333,-17C222.3333,-17 309.6667,-17 309.6667,-17 315.3333,-17 321,-22.6667 321,-28.3333 321,-28.3333 321,-39.6667 321,-39.6667 321,-45.3333 315.3333,-51 309.6667,-51 309.6667,-51 222.3333,-51 222.3333,-51 216.6667,-51 211,-45.3333 211,-39.6667 211,-39.6667 211,-28.3333 211,-28.3333 211,-22.6667 216.6667,-17 222.3333,-17"/>
</g>
<!-- state_REG_ADDR&#45;&gt;state_REG_ERR -->
<g id="edge4" class="edge transition">
<title>state_REG_ADDR&#45;&gt;state_REG_ERR</title>
<path fill="none" stroke="#000000" d="M153.2492,-179.8177C151.4854,-172.7667 150,-164.579 150,-157 150,-157 150,-157 150,-75 150,-62.6416 173.7012,-53.0784 199.6769,-46.3087"/>
<polygon fill="#000000" stroke="#000000" points="200.8205,-49.632 209.699,-43.8509 199.1531,-42.8335 200.8205,-49.632"/>
<text text-anchor="start" x="150" y="-113" font-family="Helvetica,sans-Serif" font-size="10.00" fill="#000000">f_2err &#160;&#160;</text>
</g>
<!-- state_REG_DATA&#45;&gt;state_REG_WAIT -->
<g id="edge6" class="edge transition">
<title>state_REG_DATA&#45;&gt;state_REG_WAIT</title>
<path fill="none" stroke="#000000" d="M206.4068,-130.4179C200.5383,-131.6911 194.6618,-132.9088 189,-134 155.6708,-140.4237 38,-123.0574 38,-157 38,-239 38,-239 38,-239 38,-252.2987 108.3533,-264.4138 164.5438,-271.9692"/>
<polygon fill="#000000" stroke="#000000" points="164.122,-275.4438 174.4936,-273.28 165.0364,-268.5037 164.122,-275.4438"/>
<text text-anchor="start" x="38" y="-195" font-family="Helvetica,sans-Serif" font-size="10.00" fill="#000000">f_2end &#160;&#160;</text>
</g>
<!-- state_REG_DATA&#45;&gt;state_REG_WAIT -->
<g id="edge8" class="edge transition">
<title>state_REG_DATA&#45;&gt;state_REG_WAIT</title>
<path fill="none" stroke="#000000" d="M264.722,-134.3594C264.3301,-141.4321 264,-149.5884 264,-157 264,-239 264,-239 264,-239 264,-243.9805 262.5265,-248.7382 260.222,-253.1334"/>
<polygon fill="#000000" stroke="#000000" points="257.204,-251.3494 254.5305,-261.6014 263.0137,-255.2542 257.204,-251.3494"/>
<text text-anchor="start" x="264" y="-195" font-family="Helvetica,sans-Serif" font-size="10.00" fill="#000000">f_end &#160;&#160;</text>
</g>
<!-- state_REG_DATA&#45;&gt;state_REG_ERR -->
<g id="edge7" class="edge transition">
<title>state_REG_DATA&#45;&gt;state_REG_ERR</title>
<path fill="none" stroke="#000000" d="M266,-97.8015C266,-87.3976 266,-74.1215 266,-62.3768"/>
<polygon fill="#000000" stroke="#000000" points="269.5001,-62.1476 266,-52.1476 262.5001,-62.1476 269.5001,-62.1476"/>
<text text-anchor="start" x="266" y="-72" font-family="Helvetica,sans-Serif" font-size="10.00" fill="#000000">f_2err &#160;&#160;</text>
</g>
<!-- state_REG_ERR&#45;&gt;state_REG_WAIT -->
<g id="edge9" class="edge transition">
<title>state_REG_ERR&#45;&gt;state_REG_WAIT</title>
<path fill="none" stroke="#000000" d="M322.0726,-46.8127C345.7743,-53.9053 368,-63.5965 368,-75 368,-142.5 368,-142.5 368,-142.5 368,-175.9317 372.1218,-189.3018 352,-216 338.287,-234.1948 317.8504,-247.7957 297.7659,-257.6696"/>
<polygon fill="#000000" stroke="#000000" points="296.1734,-254.5503 288.588,-261.9471 299.1305,-260.895 296.1734,-254.5503"/>
<text text-anchor="start" x="368" y="-154" font-family="Helvetica,sans-Serif" font-size="10.00" fill="#000000">f_2end &#160;&#160;</text>
</g>
</g>
</svg>
