<?xml version="1.0" encoding="UTF-8" standalone="no"?>
<!DOCTYPE svg PUBLIC "-//W3C//DTD SVG 1.1//EN"
 "http://www.w3.org/Graphics/SVG/1.1/DTD/svg11.dtd">
<!-- Generated by graphviz version 2.40.1 (20161225.0304)
 -->
<!-- Title: state transitions Pages: 1 -->
<svg width="354pt" height="352pt"
 viewBox="0.00 0.00 354.00 352.00" xmlns="http://www.w3.org/2000/svg" xmlns:xlink="http://www.w3.org/1999/xlink">
<g id="graph0" class="graph" transform="scale(1 1) rotate(0) translate(4 348)">
<title>state transitions</title>
<polygon fill="#ffffff" stroke="transparent" points="-4,4 -4,-348 350,-348 350,4 -4,4"/>
<g id="clust1" class="cluster state regular">
<title>cluster_FSM_I2C_REG</title>
<path fill="none" stroke="#000000" stroke-width="2" d="M20,-8C20,-8 326,-8 326,-8 332,-8 338,-14 338,-20 338,-20 338,-324 338,-324 338,-330 332,-336 326,-336 326,-336 20,-336 20,-336 14,-336 8,-330 8,-324 8,-324 8,-20 8,-20 8,-14 14,-8 20,-8"/>
<text text-anchor="start" x="131.8306" y="-317.2" font-family="Helvetica,sans-Serif" font-size="12.00" fill="#000000">FSM_I2C_REG</text>
</g>
<!-- FSM_I2C_REG -->
<!-- state_REG_WAIT -->
<g id="node2" class="node state regular">
<title>state_REG_WAIT</title>
<polygon fill="#ffffff" fill-opacity="0.003922" stroke="transparent" stroke-width="2" points="227.5,-298 110.5,-298 110.5,-262 227.5,-262 227.5,-298"/>
<text text-anchor="start" x="121.8258" y="-276.2" font-family="Helvetica,sans-Serif" font-size="12.00" fill="#000000">state_REG_WAIT</text>
<path fill="none" stroke="#000000" stroke-width="2" d="M122.8333,-263C122.8333,-263 215.1667,-263 215.1667,-263 220.8333,-263 226.5,-268.6667 226.5,-274.3333 226.5,-274.3333 226.5,-285.6667 226.5,-285.6667 226.5,-291.3333 220.8333,-297 215.1667,-297 215.1667,-297 122.8333,-297 122.8333,-297 117.1667,-297 111.5,-291.3333 111.5,-285.6667 111.5,-285.6667 111.5,-274.3333 111.5,-274.3333 111.5,-268.6667 117.1667,-263 122.8333,-263"/>
</g>
<!-- state_REG_ADDR -->
<g id="node3" class="node state regular">
<title>state_REG_ADDR</title>
<polygon fill="#ffffff" fill-opacity="0.003922" stroke="transparent" stroke-width="2" points="305.5,-216 184.5,-216 184.5,-180 305.5,-180 305.5,-216"/>
<text text-anchor="start" x="195.8278" y="-194.2" font-family="Helvetica,sans-Serif" font-size="12.00" fill="#000000">state_REG_ADDR</text>
<path fill="none" stroke="#000000" stroke-width="2" d="M196.8333,-181C196.8333,-181 293.1667,-181 293.1667,-181 298.8333,-181 304.5,-186.6667 304.5,-192.3333 304.5,-192.3333 304.5,-203.6667 304.5,-203.6667 304.5,-209.3333 298.8333,-215 293.1667,-215 293.1667,-215 196.8333,-215 196.8333,-215 191.1667,-215 185.5,-209.3333 185.5,-203.6667 185.5,-203.6667 185.5,-192.3333 185.5,-192.3333 185.5,-186.6667 191.1667,-181 196.8333,-181"/>
</g>
<!-- state_REG_WAIT&#45;&gt;state_REG_ADDR -->
<g id="edge2" class="edge transition">
<title>state_REG_WAIT&#45;&gt;state_REG_ADDR</title>
<path fill="none" stroke="#000000" d="M194.3421,-261.9693C200.7664,-256.8426 207.4214,-251.0087 213,-245 218.667,-238.8961 224.0746,-231.7102 228.7781,-224.8185"/>
<polygon fill="#000000" stroke="#000000" points="231.7736,-226.6329 234.326,-216.3501 225.9183,-222.7969 231.7736,-226.6329"/>
<text text-anchor="start" x="222" y="-236" font-family="Helvetica,sans-Serif" font-size="10.00" fill="#000000">f_2write &#160;&#160;</text>
</g>
<!-- state_REG_DATA -->
<g id="node4" class="node state regular">
<title>state_REG_DATA</title>
<polygon fill="#ffffff" fill-opacity="0.003922" stroke="transparent" stroke-width="2" points="186.5,-134 67.5,-134 67.5,-98 186.5,-98 186.5,-134"/>
<text text-anchor="start" x="78.8238" y="-112.2" font-family="Helvetica,sans-Serif" font-size="12.00" fill="#000000">state_REG_DATA</text>
<path fill="none" stroke="#000000" stroke-width="2" d="M79.8333,-99C79.8333,-99 174.1667,-99 174.1667,-99 179.8333,-99 185.5,-104.6667 185.5,-110.3333 185.5,-110.3333 185.5,-121.6667 185.5,-121.6667 185.5,-127.3333 179.8333,-133 174.1667,-133 174.1667,-133 79.8333,-133 79.8333,-133 74.1667,-133 68.5,-127.3333 68.5,-121.6667 68.5,-121.6667 68.5,-110.3333 68.5,-110.3333 68.5,-104.6667 74.1667,-99 79.8333,-99"/>
</g>
<!-- state_REG_WAIT&#45;&gt;state_REG_DATA -->
<g id="edge1" class="edge transition">
<title>state_REG_WAIT&#45;&gt;state_REG_DATA</title>
<path fill="none" stroke="#000000" d="M110.3968,-272.2405C75.5174,-265.9185 38,-255.3242 38,-239 38,-239 38,-239 38,-157 38,-150.3573 46.2821,-143.952 57.7934,-138.2574"/>
<polygon fill="#000000" stroke="#000000" points="59.46,-141.3455 67.1419,-134.0491 56.5865,-134.9625 59.46,-141.3455"/>
<text text-anchor="start" x="38" y="-195" font-family="Helvetica,sans-Serif" font-size="10.00" fill="#000000">f_2read &#160;&#160;</text>
</g>
<!-- state_REG_ADDR&#45;&gt;state_REG_WAIT -->
<g id="edge3" class="edge transition">
<title>state_REG_ADDR&#45;&gt;state_REG_WAIT</title>
<path fill="none" stroke="#000000" d="M186.4316,-216.1828C179.5775,-220.6368 173.4768,-226.1594 169.089,-233 165.5618,-238.4989 164.2321,-245.1553 164.0704,-251.7074"/>
<polygon fill="#000000" stroke="#000000" points="160.5782,-251.9467 164.6298,-261.7363 167.5674,-251.5568 160.5782,-251.9467"/>
<text text-anchor="start" x="169" y="-236" font-family="Helvetica,sans-Serif" font-size="10.00" fill="#000000">f_2end &#160;&#160;</text>
</g>
<!-- state_REG_ADDR&#45;&gt;state_REG_DATA -->
<g id="edge5" class="edge transition">
<title>state_REG_ADDR&#45;&gt;state_REG_DATA</title>
<path fill="none" stroke="#000000" d="M212.84,-179.8607C204.0869,-174.6448 194.7079,-168.7939 186.31,-163 176.2732,-156.0755 165.7183,-147.9941 156.3401,-140.505"/>
<polygon fill="#000000" stroke="#000000" points="158.4209,-137.6864 148.4443,-134.12 154.0193,-143.1294 158.4209,-137.6864"/>
<text text-anchor="start" x="186" y="-154" font-family="Helvetica,sans-Serif" font-size="10.00" fill="#000000">f_2data &#160;&#160;</text>
</g>
<!-- state_REG_ERR -->
<g id="node5" class="node state regular">
<title>state_REG_ERR</title>
<polygon fill="#ffffff" fill-opacity="0.003922" stroke="transparent" stroke-width="2" points="290,-52 178,-52 178,-16 290,-16 290,-52"/>
<text text-anchor="start" x="188.6592" y="-30.2" font-family="Helvetica,sans-Serif" font-size="12.00" fill="#000000">state_REG_ERR</text>
<path fill="none" stroke="#000000" stroke-width="2" d="M190.3333,-17C190.3333,-17 277.6667,-17 277.6667,-17 283.3333,-17 289,-22.6667 289,-28.3333 289,-28.3333 289,-39.6667 289,-39.6667 289,-45.3333 283.3333,-51 277.6667,-51 277.6667,-51 190.3333,-51 190.3333,-51 184.6667,-51 179,-45.3333 179,-39.6667 179,-39.6667 179,-28.3333 179,-28.3333 179,-22.6667 184.6667,-17 190.3333,-17"/>
</g>
<!-- state_REG_ADDR&#45;&gt;state_REG_ERR -->
<g id="edge4" class="edge transition">
<title>state_REG_ADDR&#45;&gt;state_REG_ERR</title>
<path fill="none" stroke="#000000" d="M237.9713,-179.9081C235.8154,-172.8683 234,-164.6646 234,-157 234,-157 234,-157 234,-75 234,-70.9516 234,-66.6784 234,-62.48"/>
<polygon fill="#000000" stroke="#000000" points="237.5001,-62.3687 234,-52.3688 230.5001,-62.3688 237.5001,-62.3687"/>
<text text-anchor="start" x="234" y="-113" font-family="Helvetica,sans-Serif" font-size="10.00" fill="#000000">f_2err &#160;&#160;</text>
</g>
<!-- state_REG_DATA&#45;&gt;state_REG_WAIT -->
<g id="edge6" class="edge transition">
<title>state_REG_DATA&#45;&gt;state_REG_WAIT</title>
<path fill="none" stroke="#000000" d="M125.0831,-134.3478C124.4951,-141.4191 124,-149.5774 124,-157 124,-239 124,-239 124,-239 124,-244.6808 125.9838,-249.7835 129.1183,-254.3005"/>
<polygon fill="#000000" stroke="#000000" points="126.5477,-256.6766 135.8232,-261.7968 131.7652,-252.0099 126.5477,-256.6766"/>
<text text-anchor="start" x="124" y="-195" font-family="Helvetica,sans-Serif" font-size="10.00" fill="#000000">f_2end &#160;&#160;</text>
</g>
<!-- state_REG_DATA&#45;&gt;state_REG_ERR -->
<g id="edge7" class="edge transition">
<title>state_REG_DATA&#45;&gt;state_REG_ERR</title>
<path fill="none" stroke="#000000" d="M150.7468,-97.8015C165.8464,-86.2298 185.5825,-71.105 202.0488,-58.486"/>
<polygon fill="#000000" stroke="#000000" points="204.5113,-61.0084 210.3196,-52.1476 200.2534,-55.4523 204.5113,-61.0084"/>
<text text-anchor="start" x="187" y="-72" font-family="Helvetica,sans-Serif" font-size="10.00" fill="#000000">f_2err &#160;&#160;</text>
</g>
<!-- state_REG_ERR&#45;&gt;state_REG_WAIT -->
<g id="edge8" class="edge transition">
<title>state_REG_ERR&#45;&gt;state_REG_WAIT</title>
<path fill="none" stroke="#000000" d="M278.3499,-52.1104C285.7084,-57.9715 291,-65.4919 291,-75 291,-142.5 291,-142.5 291,-142.5 291,-162.7807 310.9462,-160.6439 317,-180 321.776,-195.2706 324.7966,-202.0281 317,-216 300.8754,-244.8963 268.0867,-260.7525 237.461,-269.4501"/>
<polygon fill="#000000" stroke="#000000" points="236.4034,-266.109 227.6175,-272.0299 238.1781,-272.8803 236.4034,-266.109"/>
<text text-anchor="start" x="303" y="-154" font-family="Helvetica,sans-Serif" font-size="10.00" fill="#000000">f_2end &#160;&#160;</text>
</g>
</g>
</svg>
